<?xml version="1.0" standalone="no"?>
<!DOCTYPE svg PUBLIC "-//W3C//DTD SVG 20010904//EN"
 "http://www.w3.org/TR/2001/REC-SVG-20010904/DTD/svg10.dtd">
<svg version="1.0" xmlns="http://www.w3.org/2000/svg"
 width="260.000000pt" height="260.000000pt" viewBox="0 0 260.000000 260.000000"
 preserveAspectRatio="xMidYMid meet">
<metadata>
Created by potrace 1.11, written by Peter Selinger 2001-2013
</metadata>
<g transform="translate(0.000000,260.000000) scale(0.100000,-0.100000)"
fill="#000000" stroke="none">
<path d="M250 2311 c-54 -17 -91 -43 -118 -83 l-27 -42 0 -505 c0 -457 2 -512
18 -571 84 -302 219 -488 522 -716 47 -35 267 -136 345 -158 121 -34 141 -37
271 -42 104 -4 175 3 304 30 50 10 182 59 248 92 203 102 394 271 510 452 59
92 123 244 141 332 2 14 9 48 15 75 5 28 10 250 10 515 l1 465 -24 52 c-19 39
-35 58 -73 80 l-48 28 -1035 2 c-569 1 -1046 -2 -1060 -6z m958 -420 c11 -6
30 -23 41 -37 20 -26 21 -38 21 -318 l0 -292 150 -150 c149 -150 150 -152 150
-196 0 -36 -6 -51 -30 -77 -17 -17 -36 -32 -43 -32 -6 -1 -23 -3 -37 -4 -14
-2 -37 4 -52 11 -42 22 -356 337 -362 365 -4 13 -5 171 -4 350 3 311 4 328 23
349 39 43 97 56 143 31z"/>
</g>
</svg>
